<svg id="Layer_1" data-name="Layer 1" xmlns="http://www.w3.org/2000/svg" viewBox="0 0 81.51 82.3"><title>iconmonstr-coffee-8 2</title><path d="M62.33,44.47C61.1,58,56.57,67.92,50.4,77.38H29.82A63.45,63.45,0,0,1,17.89,44.47ZM71,36.24H9.25c0,23.45,7.4,37,16.46,49.37h28.8C63.15,73.68,71,59.69,71,36.24Zm4.53,8.23c-.41,2.88-.41,5.76-1.24,8.23h6.18C78.79,58,74.26,63,71,64.63a105.25,105.25,0,0,1-5.35,11.93C79.2,72,89.49,58,90.72,44.47ZM43.81,32.12c19.34-17.69-4.11-16.46.41-28.8C28.59,19,50,19.36,43.81,32.12Zm-11.52,0c13.17-11.52-2.88-12.76.41-21C21.59,22.66,36.41,23.07,32.29,32.12Z" transform="translate(-9.25 -3.32)"/></svg>