<?xml version="1.0" encoding="utf-8"?>
<!-- Generator: Adobe Illustrator 23.0.4, SVG Export Plug-In . SVG Version: 6.00 Build 0)  -->
<svg version="1.1" id="Layer_1" xmlns="http://www.w3.org/2000/svg" xmlns:xlink="http://www.w3.org/1999/xlink" x="0px" y="0px"
	 viewBox="0 0 100 89.3" style="enable-background:new 0 0 100 89.3;" xml:space="preserve">
<g>
	<path d="M54.7,37.1c13.5-9.5,12.7-18.5,9.4-25.7c-4.4-9.4-17.5-11.2-23-0.2c0,0,4.7-5,8.7,0.7c2.3,3.3,2.3,8.6-5,15.6
		C28.7,42.8,15.5,50.2,33,70.3C33,70.3,23.9,58.9,54.7,37.1z"/>
	<path d="M73.9,45.8c-3-6.5-12.1-7.6-15.9-0.1c0,0,3.2-3.5,6,0.4c1.6,2.3,1.6,5.9-3.4,10.8c-11,10.6-20,15.7-7.9,29.4
		c0,0-6.3-7.8,14.8-22.9C76.7,56.9,76.2,50.7,73.9,45.8z"/>
</g>
</svg>
