<?xml version="1.0" encoding="utf-8"?>
<!-- Generator: Adobe Illustrator 23.0.4, SVG Export Plug-In . SVG Version: 6.00 Build 0)  -->
<svg version="1.1" id="Layer_1" xmlns="http://www.w3.org/2000/svg" xmlns:xlink="http://www.w3.org/1999/xlink" x="0px" y="0px"
	 viewBox="0 0 100 89.3" style="enable-background:new 0 0 100 89.3;" xml:space="preserve">
<style type="text/css">
	.st0{display:none;}
	.st1{display:inline;}
</style>
<g class="st0">
	<path class="st1" d="M54.7,36.8c13.5-9.5,12.7-18.5,9.4-25.7c-4.4-9.4-17.5-11.2-23-0.2c0,0,4.7-5,8.7,0.7c2.3,3.3,2.3,8.6-5,15.6
		C28.7,42.5,15.5,49.9,33,70C33,70,23.9,58.6,54.7,36.8z"/>
	<path class="st1" d="M73.9,45.5c-3-6.5-12.1-7.6-15.9-0.1c0,0,3.2-3.5,6,0.4c1.6,2.3,1.6,5.9-3.4,10.8c-11,10.6-20,15.7-7.9,29.4
		c0,0-6.3-7.8,14.8-22.9C76.7,56.6,76.2,50.4,73.9,45.5z"/>
</g>
<path d="M83,71.4c-2.4,1.6-4.9,2.5-7.4,2.8c-1,0.1-1.9,0.1-2.7,0c0.5,2.1-0.3,4.4-2.1,6.5s-4.6,3.9-7.7,4.9
	c-1.3,0.4-2.6,0.7-3.8,0.8c-5.4,0.7-9.8-1.3-11-4.9c-1.5-4.6,2.7-9.9,9.6-12.1c1.3-0.4,2.6-0.7,3.8-0.8l0,0c0.2,0,0.4,0,0.5-0.1
	c-4.4-3.1-8.3-6.7-11.7-11c-1.1,3.6-5.4,6.7-11.1,7.7c-7.1,1.2-13.3-1.7-14-6.3c-0.7-4.8,4.2-9.3,11.3-10.5c0.3-0.1,0.6-0.1,0.9-0.1
	l0,0c2.5-0.3,4.8-0.1,6.8,0.5c-0.4-0.6-0.7-1.2-1-1.8c-2.8-5.1-5.4-10.8-7.7-17.6c-1.4,3.4-3.9,7.7-8.2,10.1
	c-1.6,0.8-3.5,1.4-5.5,1.7c-5.8,0.7-11.2-1.4-11.4-1.5c-0.6-0.3-1-0.9-0.8-1.6c0.1-0.5,2.3-10.4,9.6-14.4c1.6-0.8,3.5-1.4,5.5-1.7
	c3.4-0.4,6.7,0.2,8.9,0.7c-1.6-5.5-3.1-11.6-4.6-18.4c-0.2-0.7,0.3-1.5,1-1.7c0.1,0,0.1,0,0.2,0c0.7-0.1,1.4,0.4,1.5,1.1
	c1.5,6.9,3.1,13.2,4.8,18.8c2.6-3.1,8.1-8.8,15.5-9.6h0.3c9.9-1.1,18.7,7.5,19,7.8c0.5,0.5,0.5,1.2,0.2,1.8
	C71.3,23,64.4,32.9,54.6,34h-0.3c-6.3,0.7-12.1-2.5-15.6-5c2.8,8.3,6,14.9,9.4,20.4c0.3-0.9,0.8-1.9,1.5-2.7
	c1.6-2.2,4.3-4.2,7.3-5.5c1.6-0.7,3.3-1.1,4.9-1.3c4.8-0.6,8.8,1.1,10.1,4.3c1.7,4.4-2.1,10.1-8.8,12.8c-1.6,0.7-3.3,1.1-4.9,1.3
	c-1.2,0.2-2.4,0.2-3.5,0c3.7,4.2,7.8,7.4,12.1,10c-0.1-1.4,0.3-2.9,1-4.5c1.2-2.5,3.4-4.9,6.2-6.8c2.4-1.6,4.9-2.5,7.4-2.8
	c3.6-0.4,6.4,0.7,7.9,3C91.8,61.2,89,67.4,83,71.4z M37.3,51.3c-5.4,0.8-9.5,4.2-9.1,7.3c0.5,2.9,4.9,4.8,10.1,4.1
	c0.3,0,0.5-0.1,0.7-0.1c5.4-0.8,9.5-4.2,9.1-7.3C47.6,52.2,42.7,50.3,37.3,51.3z M20.6,26.1c-4.8,2.6-7.1,8.7-7.9,11.3
	c1.7,0.6,5.4,1.5,9.1,1c1.6-0.2,3.2-0.7,4.5-1.4c2.7-1.4,4.5-3.9,5.8-6.3c-4.2,3.5-9.1,5.7-14.6,6.4l0,0c-0.7,0.1-1.4-0.5-1.6-1.2
	c-0.1-0.7,0.5-1.5,1.2-1.6c6.5-0.9,12-3.9,16.4-9c-1.9-0.6-5.1-1.2-8.3-0.8C23.5,24.9,22,25.4,20.6,26.1z M54.1,31.3h0.2
	c6.9-0.8,12.3-6.9,14.3-9.3c-2.4-2.1-9-7-16-6.3h-0.2c-6.4,0.7-11.5,6.1-13.8,8.8c8,2.2,15.9,1.6,23.3-2.1c0.6-0.4,1.5-0.1,1.8,0.7
	c0.4,0.7,0.1,1.5-0.6,1.9C56.6,28,49.5,29,42.4,28C45.5,30,49.7,31.8,54.1,31.3z M62.1,54.4c5-2.1,8.4-6.3,7.2-9.1
	c-0.7-2-3.7-3-7.2-2.6c-1.4,0.2-2.8,0.6-4.3,1.1c-2.6,1.1-4.8,2.7-6.1,4.6c-1.2,1.7-1.6,3.3-1.1,4.6c0.7,2,3.7,3,7.1,2.6
	C59.3,55.4,60.7,55,62.1,54.4z M62,71.5c-1.1,0.1-2.2,0.4-3.3,0.7c-5.2,1.7-8.8,5.7-7.9,8.6c0.7,2.2,4,3.5,8,3
	c1.1-0.1,2.2-0.4,3.3-0.7c2.7-0.8,4.9-2.3,6.5-4.1c1.3-1.6,1.8-3.2,1.4-4.5C69.4,72.3,66,71.1,62,71.5L62,71.5z M86.9,58.7
	c-0.8-1.4-2.7-2-5.2-1.7c-2,0.3-4.3,1.1-6.3,2.4c-2.4,1.6-4.2,3.5-5.2,5.6c-0.9,1.9-1,3.5-0.3,4.7c0.2,0.4,0.5,0.7,0.8,0.8l0,0
	c1,0.7,2.6,1,4.4,0.8c2-0.3,4.3-1.1,6.3-2.4C86.1,66,88.6,61.3,86.9,58.7z"/>
</svg>
