<?xml version="1.0" encoding="utf-8"?>
<!-- Generator: Adobe Illustrator 24.1.0, SVG Export Plug-In . SVG Version: 6.00 Build 0)  -->
<svg version="1.1" id="Layer_1" xmlns="http://www.w3.org/2000/svg" xmlns:xlink="http://www.w3.org/1999/xlink" x="0px" y="0px"
	 viewBox="0 0 26.5 33.1" style="enable-background:new 0 0 26.5 33.1;" xml:space="preserve">
<path d="M2.1,2.9c-0.3,0-0.5,0.2-0.5,0.5C1.6,3.7,1.8,3.9,2,4l2,0.4l0.5,2.4c0,0,0,0,0,0L7,18.2c0.1,0.2,0.3,0.4,0.5,0.4h14.3
	c0.3,0,0.5-0.2,0.5-0.5s-0.2-0.5-0.5-0.5c0,0,0,0,0,0H8l-0.5-2.2h15.1c0.2,0,0.5-0.2,0.5-0.4l1.8-8.2c0.1-0.3-0.1-0.6-0.4-0.6
	c0,0-0.1,0-0.1,0c-6.3,0-12.6,0-18.9,0L5,3.8c0-0.2-0.2-0.4-0.4-0.4L2.2,2.9C2.2,2.9,2.2,2.9,2.1,2.9L2.1,2.9z M5.7,7.2
	c6,0,12,0,18,0l-1.6,7.1H7.2L5.7,7.2z M10.9,19.8c-1,0-1.9,0.9-1.9,1.9c0,1,0.8,1.9,1.9,1.9c1,0,1.9-0.9,1.9-1.9
	C12.8,20.6,12,19.8,10.9,19.8z M18.5,19.8c-1,0-1.9,0.9-1.9,1.9c0,1,0.8,1.9,1.9,1.9c1,0,1.9-0.9,1.9-1.9
	C20.4,20.6,19.5,19.8,18.5,19.8z M10.9,20.8c0.5,0,0.8,0.4,0.8,0.8c0,0.5-0.4,0.8-0.8,0.8c-0.5,0-0.8-0.4-0.8-0.8
	C10.1,21.2,10.5,20.8,10.9,20.8z M18.5,20.8c0.5,0,0.8,0.4,0.8,0.8c0,0.5-0.4,0.8-0.8,0.8s-0.8-0.4-0.8-0.8
	C17.7,21.2,18.1,20.8,18.5,20.8z"/>
</svg>
