<?xml version="1.0" encoding="utf-8"?>
<!-- Generator: Adobe Illustrator 24.1.0, SVG Export Plug-In . SVG Version: 6.00 Build 0)  -->
<svg version="1.1" id="Layer_1" xmlns="http://www.w3.org/2000/svg" xmlns:xlink="http://www.w3.org/1999/xlink" x="0px" y="0px"
	 viewBox="0 0 23.3 20.7" style="enable-background:new 0 0 23.3 20.7;" xml:space="preserve">
<path d="M0.5,0C0.2,0,0,0.2,0,0.5C0,0.8,0.2,1,0.4,1.1l2,0.4l0.5,2.4l0,0l2.5,11.4c0.1,0.2,0.3,0.4,0.5,0.4h14.3
	c0.3,0,0.5-0.2,0.5-0.5s-0.2-0.5-0.5-0.5l0,0H6.4l-0.5-2.2H21c0.2,0,0.5-0.2,0.5-0.4l1.8-8.2c0.1-0.3-0.1-0.6-0.4-0.6h-0.1
	c-6.3,0-12.6,0-18.9,0L3.4,0.9c0-0.2-0.2-0.4-0.4-0.4L0.6,0C0.6,0,0.6,0,0.5,0L0.5,0z M4.1,4.3c6,0,12,0,18,0l-1.6,7.1H5.6L4.1,4.3z
	 M9.3,16.9c-1,0-1.9,0.9-1.9,1.9s0.8,1.9,1.9,1.9c1,0,1.9-0.9,1.9-1.9C11.2,17.7,10.4,16.9,9.3,16.9z M16.9,16.9
	c-1,0-1.9,0.9-1.9,1.9s0.8,1.9,1.9,1.9c1,0,1.9-0.9,1.9-1.9C18.8,17.7,17.9,16.9,16.9,16.9z M9.3,17.9c0.5,0,0.8,0.4,0.8,0.8
	c0,0.5-0.4,0.8-0.8,0.8c-0.5,0-0.8-0.4-0.8-0.8C8.5,18.3,8.9,17.9,9.3,17.9z M16.9,17.9c0.5,0,0.8,0.4,0.8,0.8
	c0,0.5-0.4,0.8-0.8,0.8s-0.8-0.4-0.8-0.8C16.1,18.3,16.5,17.9,16.9,17.9z"/>
</svg>
