<svg id="Layer_1" data-name="Layer 1" xmlns="http://www.w3.org/2000/svg" viewBox="0 0 185 185"><defs><style>.cls-1{fill:#231f20;}.cls-2{fill:#fff;}</style></defs><title>soldout</title><circle class="cls-1" cx="92.5" cy="92.5" r="92.5"/><path class="cls-2" d="M263.5,308.24l1.32-2.92a9.88,9.88,0,0,0,5.54,1.75c2.31,0,3.24-.77,3.24-1.8,0-3.15-9.77-1-9.77-7.23,0-2.85,2.31-5.23,7.08-5.23a11.32,11.32,0,0,1,5.84,1.49l-1.2,2.95a9.48,9.48,0,0,0-4.66-1.32c-2.3,0-3.19.87-3.19,1.92,0,3.1,9.77,1,9.77,7.13,0,2.81-2.33,5.21-7.13,5.21A11.9,11.9,0,0,1,263.5,308.24Z" transform="translate(-205.14 -228)"/><path class="cls-2" d="M279.07,301.5c0-5,3.89-8.69,9.2-8.69s9.19,3.67,9.19,8.69-3.91,8.69-9.19,8.69S279.07,306.49,279.07,301.5Zm14.45,0a5.26,5.26,0,1,0-5.25,5.38A5.12,5.12,0,0,0,293.52,301.5Z" transform="translate(-205.14 -228)"/><path class="cls-2" d="M300.39,293.1h3.88v13.63h8.43v3.17H300.39Z" transform="translate(-205.14 -228)"/><path class="cls-2" d="M314.88,293.1h7.63c5.5,0,9.27,3.31,9.27,8.4s-3.77,8.4-9.27,8.4h-7.63Zm7.44,13.61c3.34,0,5.52-2,5.52-5.21s-2.18-5.21-5.52-5.21h-3.55v10.42Z" transform="translate(-205.14 -228)"/><path class="cls-2" d="M271.85,339.5c0-5,3.89-8.69,9.19-8.69s9.19,3.67,9.19,8.69-3.91,8.69-9.19,8.69S271.85,344.49,271.85,339.5Zm14.45,0a5.26,5.26,0,1,0-5.26,5.38A5.13,5.13,0,0,0,286.3,339.5Z" transform="translate(-205.14 -228)"/><path class="cls-2" d="M293,340.51V331.1h3.89v9.26c0,3.2,1.39,4.52,3.74,4.52s3.74-1.32,3.74-4.52V331.1h3.84v9.41c0,4.94-2.83,7.68-7.6,7.68S293,345.45,293,340.51Z" transform="translate(-205.14 -228)"/><path class="cls-2" d="M315.27,334.27h-5.38V331.1h14.64v3.17h-5.38V347.9h-3.88Z" transform="translate(-205.14 -228)"/></svg>