<?xml version="1.0" encoding="utf-8"?>
<!-- Generator: Adobe Illustrator 24.1.0, SVG Export Plug-In . SVG Version: 6.00 Build 0)  -->
<svg version="1.1" id="Layer_1" xmlns="http://www.w3.org/2000/svg" xmlns:xlink="http://www.w3.org/1999/xlink" x="0px" y="0px"
	 viewBox="0 0 200 200" style="enable-background:new 0 0 200 200;" xml:space="preserve">
<style type="text/css">
	.st0{fill:#010101;}
</style>
<path class="st0" d="M38.9,124.4c0,33.8,27.5,61.1,61.1,61.1s61.1-27.5,61.1-61.1c0-32.9-26.1-59.8-58.6-61.1
	c0.1-1.1,0.2-2.2,0.2-3.3c1.7,0.2,4.2,0.4,7.3,0.4c8.3,0,20.5-1.6,28.4-9.5c12.8-12.8,9-36.5,8.8-37.6c-0.2-1-0.9-1.8-1.9-1.9
	c-1-0.2-24.8-4-37.6,8.8c-3,3-5,6.6-6.5,10.3C97.8,9.8,89.7,1.2,89.1,0.7c-0.9-0.9-2.3-0.9-3.2-0.1C85,1.6,85,3,85.8,3.9
	C85.9,4,90.6,9.1,94.2,21c-0.3-0.3-0.5-0.6-0.7-0.8c-12.7-12.7-36.5-9-37.6-8.8c-1,0.2-1.8,0.9-1.9,1.9c-0.1,1-3.9,24.8,8.9,37.6
	c7.9,7.9,20,9.5,28.4,9.5c2.8,0,5.2-0.2,6.9-0.4C98.1,61,98,62.1,98,63.2C65.1,64.4,38.9,91.4,38.9,124.4z M156.5,124.4
	c0,31.2-25.3,56.5-56.5,56.5s-56.5-25.3-56.5-56.5S68.8,67.8,100,67.8S156.5,93.2,156.5,124.4z M111,23.5c9.3-9.3,26.4-8.3,31.8-7.7
	c0.6,5.5,1.6,22.5-7.7,31.8s-26.4,8.3-31.8,7.7C102.8,49.9,101.8,32.7,111,23.5z M66.1,47.6c-9.3-9.3-8.3-26.4-7.7-31.8
	c5.4-0.6,22.5-1.6,31.8,7.7c5.4,5.4,7.3,13.5,7.9,20.3c0.1,1.9,0.2,3.7,0.2,5.7c0,2.5-0.2,4.5-0.4,5.8
	C92.6,55.8,75.4,56.9,66.1,47.6z"/>
</svg>
