<?xml version="1.0" encoding="utf-8"?>
<!-- Generator: Adobe Illustrator 24.1.0, SVG Export Plug-In . SVG Version: 6.00 Build 0)  -->
<svg version="1.1" id="Layer_1" xmlns="http://www.w3.org/2000/svg" xmlns:xlink="http://www.w3.org/1999/xlink" x="0px" y="0px"
	 viewBox="0 0 200 200" style="enable-background:new 0 0 200 200;" xml:space="preserve">
<style type="text/css">
	.tasst0{fill:#010101;}
</style>
<path class="tasst0" d="M34.1,134.1c0,36.4,29.6,65.9,65.9,65.9s65.9-29.6,65.9-65.9c0-35.5-28.1-64.5-63.2-65.9
	c0.1-1.2,0.2-2.4,0.2-3.6c1.8,0.2,4.5,0.4,7.9,0.4c9,0,22.1-1.7,30.6-10.2c13.8-13.8,9.7-39.4,9.5-40.5c-0.2-1.1-1-1.9-2.1-2.1
	c-1.1-0.2-26.7-4.3-40.5,9.5c-3.2,3.2-5.4,7.1-7,11.1c-3.7-22.2-12.4-31.5-13-32c-1-1-2.5-1-3.5-0.1c-1,1-1,2.5-0.1,3.5
	c0.1,0.1,5.2,5.6,9.1,18.4c-0.3-0.3-0.5-0.6-0.8-0.9C79.3,8,53.6,12,52.5,12.2s-1.9,1-2.1,2.1C50.3,15.4,46.2,41,60,54.8
	C68.5,63.3,81.6,65,90.6,65c3,0,5.6-0.2,7.4-0.4c-0.1,1.2-0.2,2.3-0.2,3.5C62.4,69.4,34.1,98.5,34.1,134.1z M160.9,134.1
	c0,33.6-27.3,60.9-60.9,60.9s-60.9-27.3-60.9-60.9s27.3-61,60.9-61S160.9,100.5,160.9,134.1z M111.9,25.3c10-10,28.5-9,34.3-8.3
	c0.6,5.9,1.7,24.3-8.3,34.3s-28.5,9-34.3,8.3C103,53.8,101.9,35.3,111.9,25.3z M63.5,51.3c-10-10-9-28.5-8.3-34.3
	c5.8-0.6,24.3-1.7,34.3,8.3c5.8,5.8,7.9,14.5,8.5,21.9c0.1,2,0.2,4,0.2,6.1c0,2.7-0.2,4.9-0.4,6.3C92,60.2,73.5,61.3,63.5,51.3z"/>
</svg>
