<?xml version="1.0" encoding="utf-8"?>
<!-- Generator: Adobe Illustrator 24.1.0, SVG Export Plug-In . SVG Version: 6.00 Build 0)  -->
<svg version="1.1" id="Layer_1" xmlns="http://www.w3.org/2000/svg" xmlns:xlink="http://www.w3.org/1999/xlink" x="0px" y="0px"
	 viewBox="0 0 100 125" style="enable-background:new 0 0 100 125;" xml:space="preserve">
<style type="text/css">
	.st0{fill:none;}
</style>
<g>
	<path class="st0" d="M50,42.3c9.3,0,16.9-7.6,16.9-16.9c0-9.3-7.6-16.9-16.9-16.9s-16.9,7.6-16.9,16.9C33.1,34.8,40.7,42.3,50,42.3
		z"/>
	<path class="st0" d="M50,52.1c-19.4,0-35.2,15.8-35.2,35.2v4.1h70.4v-4.1C85.2,67.9,69.4,52.1,50,52.1z"/>
	<path d="M50,45.9c11.3,0,20.5-9.2,20.5-20.5S61.3,5,50,5s-20.5,9.2-20.5,20.5S38.7,45.9,50,45.9z M50,8.6c9.3,0,16.9,7.6,16.9,16.9
		c0,9.3-7.6,16.9-16.9,16.9s-16.9-7.6-16.9-16.9C33.1,16.2,40.7,8.6,50,8.6z"/>
	<path d="M50,48.6c-21.4,0-38.8,17.4-38.8,38.8v5.9c0,1,0.8,1.8,1.8,1.8h74c1,0,1.8-0.8,1.8-1.8v-5.9C88.8,66,71.4,48.6,50,48.6z
		 M85.2,91.4H14.8v-4.1c0-19.4,15.8-35.2,35.2-35.2c19.4,0,35.2,15.8,35.2,35.2V91.4z"/>
</g>
</svg>
