<?xml version="1.0" encoding="utf-8"?>
<!-- Generator: Adobe Illustrator 24.1.0, SVG Export Plug-In . SVG Version: 6.00 Build 0)  -->
<svg version="1.1" id="Layer_1" xmlns="http://www.w3.org/2000/svg" xmlns:xlink="http://www.w3.org/1999/xlink" x="0px" y="0px"
	 viewBox="0 0 100 90.1" style="enable-background:new 0 0 100 90.1;" xml:space="preserve">
<style type="text/css">
	.st0{fill:none;}
</style>
<g>
	<path class="st0" d="M50,37.3c9.3,0,16.9-7.6,16.9-16.9S59.3,3.5,50,3.5s-16.9,7.6-16.9,16.9C33.1,29.8,40.7,37.3,50,37.3z"/>
	<path class="st0" d="M50,47.1c-19.4,0-35.2,15.8-35.2,35.2v4.1h70.4v-4.1C85.2,62.9,69.4,47.1,50,47.1z"/>
	<path d="M50,40.9c11.3,0,20.5-9.2,20.5-20.5S61.3,0,50,0S29.5,9.2,29.5,20.5S38.7,40.9,50,40.9z M50,3.6c9.3,0,16.9,7.6,16.9,16.9
		S59.3,37.4,50,37.4s-16.9-7.6-16.9-16.9S40.7,3.6,50,3.6z"/>
	<path d="M50,43.6c-21.4,0-38.8,17.4-38.8,38.8v5.9c0,1,0.8,1.8,1.8,1.8h74c1,0,1.8-0.8,1.8-1.8v-5.9C88.8,61,71.4,43.6,50,43.6z
		 M85.2,86.4H14.8v-4.1c0-19.4,15.8-35.2,35.2-35.2s35.2,15.8,35.2,35.2V86.4z"/>
</g>
</svg>
